<svg version="1.1" id="Layer_1" xmlns="http://www.w3.org/2000/svg" xmlns:xlink="http://www.w3.org/1999/xlink" x="0px" y="0px"
	 width="100%" viewBox="0 0 500 500" enable-background="new 0 0 500 500" xml:space="preserve">
<path fill="#000000" opacity="1.000000" stroke="none" 
	d="
M223.000000,501.000000 
	C148.666687,501.000000 74.833366,501.000000 1.000040,501.000000 
	C1.000026,334.333405 1.000026,167.666779 1.000013,1.000129 
	C167.666565,1.000086 334.333130,1.000086 500.999756,1.000043 
	C500.999847,167.666534 500.999847,334.333069 500.999939,500.999817 
	C408.500000,501.000000 316.000000,501.000000 223.000000,501.000000 
M159.996948,340.993988 
	C159.996948,340.993988 159.976730,340.926483 159.169540,341.299530 
	C159.102036,363.552643 159.026245,385.805725 159.007004,408.058868 
	C159.006424,408.726685 159.597870,409.394989 159.986450,410.656586 
	C160.265366,411.103210 160.544266,411.549835 161.247543,412.791656 
	C172.018295,412.869934 182.789017,412.960938 193.559891,412.986176 
	C194.060104,412.987335 194.561691,412.400238 195.789047,411.646149 
	C195.859009,410.654907 195.980347,409.664215 195.990631,408.672363 
	C196.059830,402.005463 196.052185,402.004303 189.610138,402.001282 
	C185.284988,401.999237 180.952042,401.841125 176.637192,402.051941 
	C173.258682,402.217010 171.761490,401.172882 171.939819,397.556763 
	C172.193573,392.411896 172.038116,387.246857 172.979614,382.030212 
	C176.742920,382.028595 180.520248,382.210266 184.261765,381.924133 
	C185.539139,381.826447 187.828278,380.445068 187.768158,379.836761 
	C187.478531,376.906403 186.544449,374.039795 184.936722,371.010925 
	C180.675735,371.010925 176.414749,371.010925 172.015411,371.010925 
	C172.015411,365.743530 172.361099,361.067688 171.916992,356.468109 
	C171.483505,351.978485 173.670746,350.992004 177.373291,351.014954 
	C183.468628,351.052704 189.564346,351.025177 196.542099,351.025177 
	C195.907227,347.305115 195.374069,344.181091 194.649353,340.193420 
	C183.733780,340.123505 172.818237,340.036804 161.902603,340.025482 
	C161.249557,340.024811 160.595901,340.627350 159.996948,340.993988 
M281.872650,327.399017 
	C281.895813,321.300873 282.020874,315.200867 281.909149,309.105194 
	C281.823669,304.442108 281.438843,299.784485 280.358673,295.018372 
	C279.249115,295.062042 278.139526,295.105713 276.210236,295.432190 
	C276.132141,305.619415 276.035431,315.806610 276.021698,325.993927 
	C276.020844,326.612366 276.678680,327.231720 277.854462,327.972748 
	C278.965302,327.940338 280.076141,327.907898 281.872650,327.399017 
M341.054962,341.020721 
	C338.889130,341.014099 336.704498,341.185760 334.561737,340.960022 
	C331.160370,340.601746 328.913452,341.268890 327.358246,344.911774 
	C325.511108,349.238647 322.639069,353.127930 319.727692,358.019104 
	C317.982910,355.119720 316.366150,353.200317 315.577148,350.985992 
	C312.542480,342.468842 306.885834,338.997314 297.148407,341.413849 
	C297.105103,364.158844 297.051544,386.903870 297.064972,409.648834 
	C297.065399,410.379425 297.752686,411.109619 298.812286,412.273621 
	C302.159424,412.131714 305.506592,411.989838 309.752441,411.739319 
	C309.834778,397.661438 309.888611,383.583252 310.042725,369.506165 
	C310.058472,368.070618 310.676666,366.641663 311.288361,365.847290 
	C313.997772,370.692749 316.707184,375.538239 319.985565,381.401184 
	C323.468384,375.154724 326.283325,370.106140 329.876099,365.438049 
	C329.923065,379.497314 329.942352,393.556793 330.057312,407.615509 
	C330.069550,409.114349 330.640747,410.608673 331.400177,412.823059 
	C334.941010,412.594482 338.481812,412.365936 342.810577,411.718384 
	C342.872711,388.796906 342.942627,365.875458 342.953674,342.953949 
	C342.953949,342.357422 342.311249,341.760559 341.054962,341.020721 
M185.884979,219.539581 
	C190.459961,242.546158 205.120483,257.563934 225.482239,269.555969 
	C224.874847,267.156464 224.540070,265.791901 224.183777,264.432983 
	C221.442947,253.979797 218.428711,243.589325 216.018250,233.060608 
	C212.529312,217.821106 216.352005,204.099136 225.093506,191.314804 
	C236.057770,175.279739 248.213058,159.956421 255.686783,141.748550 
	C260.412628,130.235153 263.895142,118.390816 263.881561,105.879250 
	C263.875031,99.872246 263.213898,93.721169 261.777496,87.899788 
	C260.233215,81.641136 257.432709,75.692467 255.180328,69.608543 
	C254.590363,69.675446 254.000397,69.742348 253.410431,69.809242 
	C252.936508,70.883987 252.305969,71.917694 252.012070,73.039597 
	C247.212860,91.359970 240.396393,108.785995 229.246536,124.272423 
	C218.823105,138.749847 208.026443,152.968979 197.945602,167.679749 
	C187.422272,183.036270 182.993622,200.174896 185.884979,219.539581 
M230.450546,246.996399 
	C233.194870,250.056412 235.647583,253.455765 238.738770,256.112122 
	C247.644073,263.764801 258.438995,267.587402 269.870331,266.751190 
	C284.498108,265.681183 297.418732,260.096771 306.815735,247.798874 
	C315.938141,235.860321 319.665100,222.704437 316.475952,208.089218 
	C313.651764,195.146576 306.460236,184.716751 294.660675,178.395248 
	C285.077087,173.260925 274.775635,171.948929 263.504852,176.450867 
	C265.266235,177.633972 266.418243,178.469208 267.627869,179.210510 
	C276.757263,184.805573 282.903564,192.329666 285.164124,203.191177 
	C288.924683,221.259964 275.035950,234.536774 259.519012,235.842957 
	C250.919388,236.566833 243.370178,232.526520 237.288010,226.596985 
	C233.417725,222.823792 230.368881,218.207993 226.661224,213.609802 
	C222.083130,225.458405 223.554596,236.192795 230.450546,246.996399 
M280.028595,357.566132 
	C279.507812,355.360199 279.042816,353.139282 278.456696,350.950867 
	C275.698853,340.653839 275.688538,340.791077 265.259552,340.913086 
	C262.475067,340.945679 261.506012,342.076996 260.998840,344.431580 
	C256.390778,365.825226 251.742996,387.210358 247.145248,408.606232 
	C246.552887,411.362823 247.346161,412.910217 250.641266,413.061798 
	C259.245056,413.457520 260.119385,412.758698 261.058044,403.899567 
	C261.194946,402.607483 262.064270,400.364838 262.712280,400.321503 
	C266.997070,400.035126 271.472046,399.600891 275.531494,400.621399 
	C276.883759,400.961304 277.003906,405.512512 278.051758,407.984039 
	C278.812073,409.777374 279.988525,412.533325 281.301178,412.731750 
	C284.716553,413.248138 288.309174,412.592102 291.936676,412.398163 
	C287.831238,393.790741 283.930969,376.113098 280.028595,357.566132 
M221.046356,360.061737 
	C220.696014,358.659882 220.466507,357.214203 219.976807,355.862854 
	C214.533539,340.841370 214.522644,340.843353 202.269653,341.031311 
	C202.018997,341.035156 201.771484,341.243164 201.345108,341.436310 
	C205.307037,351.180420 209.386780,360.856689 213.129898,370.661469 
	C214.116516,373.245819 215.063904,376.546051 214.293533,378.964661 
	C212.242081,385.405212 209.159882,391.510712 206.652191,397.814911 
	C204.745941,402.607117 203.092270,407.499817 201.089447,412.997833 
	C204.534348,412.997833 206.536179,412.814392 208.492279,413.035492 
	C212.740280,413.515656 214.899841,411.849579 216.109436,407.622162 
	C217.713745,402.015350 220.131805,396.641357 222.639771,390.003876 
	C225.052658,396.681488 227.119156,402.082214 228.944427,407.563293 
	C230.169510,411.242035 232.005188,413.615509 236.362198,413.045288 
	C238.464615,412.770142 240.632843,412.997833 243.267548,412.997833 
	C242.917725,411.312408 242.841019,410.015839 242.381180,408.873474 
	C238.529907,399.305756 234.442825,389.828156 230.833344,380.171448 
	C230.011795,377.973511 230.164307,374.983276 230.922913,372.709473 
	C232.659134,367.505341 235.092575,362.537018 237.157028,357.438171 
	C239.289948,352.170288 241.321274,346.861237 243.570190,341.128845 
	C238.557098,341.128845 234.587189,341.128845 230.500992,341.128845 
	C228.224838,347.349030 226.008133,353.553101 223.620895,359.690857 
	C223.396332,360.268219 222.097656,360.427765 221.046356,360.061737 
M207.515564,322.014282 
	C204.978180,319.039673 202.440796,316.065063 199.708572,312.862030 
	C200.968781,312.146545 201.875946,311.475769 202.890747,311.083313 
	C206.560913,309.663818 209.375763,307.323242 208.899933,303.155914 
	C208.435593,299.089386 205.601166,296.414276 201.531250,295.918549 
	C196.091354,295.255981 190.589478,295.102448 185.289200,294.742218 
	C185.289200,306.454163 185.289200,317.175293 185.289200,327.820923 
	C187.609467,327.820923 189.562225,327.820923 192.142365,327.820923 
	C192.142365,322.828217 192.142365,317.984009 192.142365,313.139801 
	C193.011093,312.498047 193.879837,311.856323 194.748566,311.214600 
	C194.925156,312.382233 194.743744,313.791138 195.340073,314.675934 
	C197.974045,318.584167 201.222504,322.123962 203.500519,326.213745 
	C205.854996,330.440796 208.556931,329.096863 211.979065,328.090820 
	C210.466736,325.968018 209.242065,324.249023 207.515564,322.014282 
M290.822021,295.162262 
	C290.822021,305.984436 290.822021,316.806610 290.822021,327.998962 
	C295.243195,327.998962 299.874237,328.014709 304.505157,327.995300 
	C311.649933,327.965363 317.107910,323.612366 319.445587,316.111420 
	C321.138672,310.678864 318.109131,302.503784 313.352081,299.070801 
	C306.755157,294.310028 299.221832,294.944305 290.822021,295.162262 
M255.004074,325.244446 
	C255.004074,321.630310 255.004074,318.016205 255.004074,314.509369 
	C258.544434,313.944611 261.632111,313.660645 264.608490,312.925903 
	C268.580414,311.945404 271.310364,309.361328 271.933380,305.233734 
	C272.576050,300.976166 270.792725,297.291962 266.615509,296.407043 
	C260.982208,295.213715 255.117661,295.112213 249.360718,294.542969 
	C249.360718,306.413910 249.360718,317.117493 249.360718,329.011871 
	C251.684982,327.839264 253.336136,327.006226 255.004074,325.244446 
M239.010406,327.915588 
	C240.617355,327.915588 242.224304,327.915588 244.745499,327.915588 
	C239.411255,316.046509 234.418167,304.936554 229.425095,293.826599 
	C228.956802,293.968689 228.488525,294.110809 228.020233,294.252899 
	C223.140732,305.379272 218.261215,316.505676 213.318665,327.775818 
	C214.923126,327.775818 216.342484,327.775818 216.700928,327.775818 
	C218.902847,324.421661 220.117264,320.206909 222.552460,319.311218 
	C229.505386,316.753906 233.942154,319.216980 237.374741,325.827026 
	C237.679321,326.413544 237.969498,327.007568 239.010406,327.915588 
z"/>
<path fill="#3AB7FF" opacity="1.000000" stroke="none" 
	d="
M185.604538,219.190491 
	C182.993622,200.174896 187.422272,183.036270 197.945602,167.679749 
	C208.026443,152.968979 218.823105,138.749847 229.246536,124.272423 
	C240.396393,108.785995 247.212860,91.359970 252.012070,73.039597 
	C252.305969,71.917694 252.936508,70.883987 253.410431,69.809242 
	C254.000397,69.742348 254.590363,69.675446 255.180328,69.608543 
	C257.432709,75.692467 260.233215,81.641136 261.777496,87.899788 
	C263.213898,93.721169 263.875031,99.872246 263.881561,105.879250 
	C263.895142,118.390816 260.412628,130.235153 255.686783,141.748550 
	C248.213058,159.956421 236.057770,175.279739 225.093506,191.314804 
	C216.352005,204.099136 212.529312,217.821106 216.018250,233.060608 
	C218.428711,243.589325 221.442947,253.979797 224.183777,264.432983 
	C224.540070,265.791901 224.874847,267.156464 225.482239,269.555969 
	C205.120483,257.563934 190.459961,242.546158 185.604538,219.190491 
z"/>
<path fill="#3AB7FF" opacity="1.000000" stroke="none" 
	d="
M230.198425,246.720673 
	C223.554596,236.192795 222.083130,225.458405 226.661224,213.609802 
	C230.368881,218.207993 233.417725,222.823792 237.288010,226.596985 
	C243.370178,232.526520 250.919388,236.566833 259.519012,235.842957 
	C275.035950,234.536774 288.924683,221.259964 285.164124,203.191177 
	C282.903564,192.329666 276.757263,184.805573 267.627869,179.210510 
	C266.418243,178.469208 265.266235,177.633972 263.504852,176.450867 
	C274.775635,171.948929 285.077087,173.260925 294.660675,178.395248 
	C306.460236,184.716751 313.651764,195.146576 316.475952,208.089218 
	C319.665100,222.704437 315.938141,235.860321 306.815735,247.798874 
	C297.418732,260.096771 284.498108,265.681183 269.870331,266.751190 
	C258.438995,267.587402 247.644073,263.764801 238.738770,256.112122 
	C235.647583,253.455765 233.194870,250.056412 230.198425,246.720673 
z"/>
<path fill="#3AB7FF" opacity="1.000000" stroke="none" 
	d="
M297.982513,341.165466 
	C306.885834,338.997314 312.542480,342.468842 315.577148,350.985992 
	C316.366150,353.200317 317.982910,355.119720 319.727692,358.019104 
	C322.639069,353.127930 325.511108,349.238647 327.358246,344.911774 
	C328.913452,341.268890 331.160370,340.601746 334.561737,340.960022 
	C336.704498,341.185760 338.889130,341.014099 341.521301,341.549927 
	C341.999298,365.431885 342.010986,388.784607 342.022644,412.137360 
	C338.481812,412.365936 334.941010,412.594482 331.198975,411.989502 
	C330.997742,394.974304 330.997742,378.792633 330.997742,362.610992 
	C330.516907,362.566498 330.036041,362.522003 329.555206,362.477509 
	C329.402863,363.337524 329.250549,364.197540 329.098206,365.057556 
	C326.283325,370.106140 323.468384,375.154724 319.985565,381.401184 
	C316.707184,375.538239 313.997772,370.692749 311.071808,365.208374 
	C310.432312,364.012238 310.009369,363.455078 308.853729,361.932617 
	C308.853729,379.414185 308.853729,395.631042 308.853729,411.847931 
	C305.506592,411.989838 302.159424,412.131714 298.420776,411.600708 
	C298.013702,387.673676 297.998108,364.419586 297.982513,341.165466 
z"/>
<path fill="#3CB7FF" opacity="1.000000" stroke="none" 
	d="
M280.029633,358.000793 
	C283.930969,376.113098 287.831238,393.790741 291.936676,412.398163 
	C288.309174,412.592102 284.716553,413.248138 281.301178,412.731750 
	C279.988525,412.533325 278.812073,409.777374 278.051758,407.984039 
	C277.003906,405.512512 276.883759,400.961304 275.531494,400.621399 
	C271.472046,399.600891 266.997070,400.035126 262.712280,400.321503 
	C262.064270,400.364838 261.194946,402.607483 261.058044,403.899567 
	C260.119385,412.758698 259.245056,413.457520 250.641266,413.061798 
	C247.346161,412.910217 246.552887,411.362823 247.145248,408.606232 
	C251.742996,387.210358 256.390778,365.825226 260.998840,344.431580 
	C261.506012,342.076996 262.475067,340.945679 265.259552,340.913086 
	C275.688538,340.791077 275.698853,340.653839 278.456696,350.950867 
	C279.042816,353.139282 279.507812,355.360199 280.029633,358.000793 
M270.958893,368.665680 
	C270.492157,366.287537 270.025421,363.909393 269.558685,361.531250 
	C269.315338,361.473297 269.071960,361.415314 268.828613,361.357361 
	C267.040466,371.075806 265.252319,380.794250 263.283356,391.495422 
	C267.710571,390.759857 270.814301,390.244141 274.538483,389.625366 
	C273.293823,382.622070 272.130768,376.078094 270.958893,368.665680 
z"/>
<path fill="#3CB7FF" opacity="1.000000" stroke="none" 
	d="
M221.172012,360.421509 
	C222.097656,360.427765 223.396332,360.268219 223.620895,359.690857 
	C226.008133,353.553101 228.224838,347.349030 230.500992,341.128845 
	C234.587189,341.128845 238.557098,341.128845 243.570190,341.128845 
	C241.321274,346.861237 239.289948,352.170288 237.157028,357.438171 
	C235.092575,362.537018 232.659134,367.505341 230.922913,372.709473 
	C230.164307,374.983276 230.011795,377.973511 230.833344,380.171448 
	C234.442825,389.828156 238.529907,399.305756 242.381180,408.873474 
	C242.841019,410.015839 242.917725,411.312408 243.267548,412.997833 
	C240.632843,412.997833 238.464615,412.770142 236.362198,413.045288 
	C232.005188,413.615509 230.169510,411.242035 228.944427,407.563293 
	C227.119156,402.082214 225.052658,396.681488 222.639771,390.003876 
	C220.131805,396.641357 217.713745,402.015350 216.109436,407.622162 
	C214.899841,411.849579 212.740280,413.515656 208.492279,413.035492 
	C206.536179,412.814392 204.534348,412.997833 201.089447,412.997833 
	C203.092270,407.499817 204.745941,402.607117 206.652191,397.814911 
	C209.159882,391.510712 212.242081,385.405212 214.293533,378.964661 
	C215.063904,376.546051 214.116516,373.245819 213.129898,370.661469 
	C209.386780,360.856689 205.307037,351.180420 201.345108,341.436310 
	C201.771484,341.243164 202.018997,341.035156 202.269653,341.031311 
	C214.522644,340.843353 214.533539,340.841370 219.976807,355.862854 
	C220.466507,357.214203 220.696014,358.659882 221.172012,360.421509 
z"/>
<path fill="#3AB7FF" opacity="1.000000" stroke="none" 
	d="
M172.057495,382.090454 
	C172.038116,387.246857 172.193573,392.411896 171.939819,397.556763 
	C171.761490,401.172882 173.258682,402.217010 176.637192,402.051941 
	C180.952042,401.841125 185.284988,401.999237 189.610138,402.001282 
	C196.052185,402.004303 196.059830,402.005463 195.990631,408.672363 
	C195.980347,409.664215 195.859009,410.654907 194.958191,411.795898 
	C183.025955,411.962585 171.924561,411.979492 160.823181,411.996429 
	C160.544266,411.549835 160.265366,411.103210 160.020721,409.892151 
	C160.028900,386.393982 160.002808,363.660248 159.976730,340.926483 
	C159.976730,340.926483 159.996948,340.993988 160.439117,341.027710 
	C172.201157,341.059998 183.521042,341.058502 194.840912,341.057037 
	C195.374069,344.181091 195.907227,347.305115 196.542099,351.025177 
	C189.564346,351.025177 183.468628,351.052704 177.373291,351.014954 
	C173.670746,350.992004 171.483505,351.978485 171.916992,356.468109 
	C172.361099,361.067688 172.015411,365.743530 172.015411,371.010925 
	C176.414749,371.010925 180.675735,371.010925 185.439743,371.525909 
	C185.942764,374.804901 185.942764,377.568909 185.942764,380.939301 
	C183.614258,380.939301 181.824051,380.800598 180.063919,380.971588 
	C177.384171,381.231934 174.725250,381.706726 172.057495,382.090454 
z"/>
<path fill="#ED2F35" opacity="1.000000" stroke="none" 
	d="
M207.766479,322.272156 
	C209.242065,324.249023 210.466736,325.968018 211.979065,328.090820 
	C208.556931,329.096863 205.854996,330.440796 203.500519,326.213745 
	C201.222504,322.123962 197.974045,318.584167 195.340073,314.675934 
	C194.743744,313.791138 194.925156,312.382233 194.748566,311.214600 
	C193.879837,311.856323 193.011093,312.498047 192.142365,313.139801 
	C192.142365,317.984009 192.142365,322.828217 192.142365,327.820923 
	C189.562225,327.820923 187.609467,327.820923 185.289200,327.820923 
	C185.289200,317.175293 185.289200,306.454163 185.289200,294.742218 
	C190.589478,295.102448 196.091354,295.255981 201.531250,295.918549 
	C205.601166,296.414276 208.435593,299.089386 208.899933,303.155914 
	C209.375763,307.323242 206.560913,309.663818 202.890747,311.083313 
	C201.875946,311.475769 200.968781,312.146545 199.708572,312.862030 
	C202.440796,316.065063 204.978180,319.039673 207.766479,322.272156 
M200.893219,299.824890 
	C198.709976,298.333893 195.851364,294.946960 193.937881,297.890839 
	C191.925079,300.987549 192.160858,305.545807 191.408005,309.497345 
	C200.495605,310.549408 203.320557,307.588562 200.893219,299.824890 
z"/>
<path fill="#ED232A" opacity="1.000000" stroke="none" 
	d="
M291.289917,295.096313 
	C299.221832,294.944305 306.755157,294.310028 313.352081,299.070801 
	C318.109131,302.503784 321.138672,310.678864 319.445587,316.111420 
	C317.107910,323.612366 311.649933,327.965363 304.505157,327.995300 
	C299.874237,328.014709 295.243195,327.998962 290.822021,327.998962 
	C290.822021,316.806610 290.822021,305.984436 291.289917,295.096313 
M296.198761,326.458710 
	C302.470642,326.329254 308.047302,324.934631 311.534119,318.948517 
	C313.958496,314.786407 313.450562,306.975128 310.155365,302.707184 
	C306.392853,297.833954 301.432159,296.266022 295.236847,298.546265 
	C295.183685,301.992188 295.005493,305.441772 295.105591,308.883240 
	C295.269714,314.524170 295.614624,320.159851 296.198761,326.458710 
z"/>
<path fill="#ED232A" opacity="1.000000" stroke="none" 
	d="
M254.995682,325.708801 
	C253.336136,327.006226 251.684982,327.839264 249.360718,329.011871 
	C249.360718,317.117493 249.360718,306.413910 249.360718,294.542969 
	C255.117661,295.112213 260.982208,295.213715 266.615509,296.407043 
	C270.792725,297.291962 272.576050,300.976166 271.933380,305.233734 
	C271.310364,309.361328 268.580414,311.945404 264.608490,312.925903 
	C261.632111,313.660645 258.544434,313.944611 255.004074,314.509369 
	C255.004074,318.016205 255.004074,321.630310 254.995682,325.708801 
M264.508942,308.928833 
	C266.463013,302.493561 265.582428,299.517883 261.166443,297.634216 
	C257.533142,296.084412 255.099686,297.531738 255.022034,301.372650 
	C254.953827,304.746887 255.007797,308.123627 255.007797,311.925079 
	C258.355988,311.016144 261.146454,310.258636 264.508942,308.928833 
z"/>
<path fill="#ED2F35" opacity="1.000000" stroke="none" 
	d="
M238.638397,327.756836 
	C237.969498,327.007568 237.679321,326.413544 237.374741,325.827026 
	C233.942154,319.216980 229.505386,316.753906 222.552460,319.311218 
	C220.117264,320.206909 218.902847,324.421661 216.700928,327.775818 
	C216.342484,327.775818 214.923126,327.775818 213.318665,327.775818 
	C218.261215,316.505676 223.140732,305.379272 228.020233,294.252899 
	C228.488525,294.110809 228.956802,293.968689 229.425095,293.826599 
	C234.418167,304.936554 239.411255,316.046509 244.745499,327.915588 
	C242.224304,327.915588 240.617355,327.915588 238.638397,327.756836 
M227.030502,303.972473 
	C225.369003,308.139557 223.707504,312.306671 221.983139,316.631470 
	C225.833145,316.631470 229.323578,316.631470 233.728973,316.631470 
	C231.430984,311.789642 229.440811,307.596405 227.030502,303.972473 
z"/>
<path fill="#ED232A" opacity="1.000000" stroke="none" 
	d="
M277.029968,295.149353 
	C278.139526,295.105713 279.249115,295.062042 280.748322,295.531921 
	C281.154297,306.655487 281.170654,317.265472 281.186981,327.875488 
	C280.076141,327.907898 278.965302,327.940338 277.438507,327.453125 
	C277.025024,316.338776 277.027496,305.744049 277.029968,295.149353 
z"/>
<path fill="#D4EFFF" opacity="1.000000" stroke="none" 
	d="
M297.565460,341.289673 
	C297.998108,364.419586 298.013702,387.673676 298.074524,411.383911 
	C297.752686,411.109619 297.065399,410.379425 297.064972,409.648834 
	C297.051544,386.903870 297.105103,364.158844 297.565460,341.289673 
z"/>
<path fill="#D4EFFF" opacity="1.000000" stroke="none" 
	d="
M342.416626,411.927856 
	C342.010986,388.784607 341.999298,365.431885 341.977997,341.621460 
	C342.311249,341.760559 342.953949,342.357422 342.953674,342.953949 
	C342.942627,365.875458 342.872711,388.796906 342.416626,411.927856 
z"/>
<path fill="#D4EFFF" opacity="1.000000" stroke="none" 
	d="
M159.573135,341.113007 
	C160.002808,363.660248 160.028900,386.393982 159.984131,409.595398 
	C159.597870,409.394989 159.006424,408.726685 159.007004,408.058868 
	C159.026245,385.805725 159.102036,363.552643 159.573135,341.113007 
z"/>
<path fill="#8ED5FF" opacity="1.000000" stroke="none" 
	d="
M329.487152,365.247803 
	C329.250549,364.197540 329.402863,363.337524 329.555206,362.477509 
	C330.036041,362.522003 330.516907,362.566498 330.997742,362.610992 
	C330.997742,378.792633 330.997742,394.974304 330.975159,411.630524 
	C330.640747,410.608673 330.069550,409.114349 330.057312,407.615509 
	C329.942352,393.556793 329.923065,379.497314 329.487152,365.247803 
z"/>
<path fill="#8ED5FF" opacity="1.000000" stroke="none" 
	d="
M309.303101,411.793640 
	C308.853729,395.631042 308.853729,379.414185 308.853729,361.932617 
	C310.009369,363.455078 310.432312,364.012238 310.935242,364.889526 
	C310.676666,366.641663 310.058472,368.070618 310.042725,369.506165 
	C309.888611,383.583252 309.834778,397.661438 309.303101,411.793640 
z"/>
<path fill="#8ED5FF" opacity="1.000000" stroke="none" 
	d="
M194.745148,340.625244 
	C183.521042,341.058502 172.201157,341.059998 160.411896,341.005341 
	C160.595901,340.627350 161.249557,340.024811 161.902603,340.025482 
	C172.818237,340.036804 183.733780,340.123505 194.745148,340.625244 
z"/>
<path fill="#D4EFFF" opacity="1.000000" stroke="none" 
	d="
M161.035370,412.394043 
	C171.924561,411.979492 183.025955,411.962585 194.594986,412.016357 
	C194.561691,412.400238 194.060104,412.987335 193.559891,412.986176 
	C182.789017,412.960938 172.018295,412.869934 161.035370,412.394043 
z"/>
<path fill="#D4EFFF" opacity="1.000000" stroke="none" 
	d="
M281.529816,327.637268 
	C281.170654,317.265472 281.154297,306.655487 281.162598,295.584961 
	C281.438843,299.784485 281.823669,304.442108 281.909149,309.105194 
	C282.020874,315.200867 281.895813,321.300873 281.529816,327.637268 
z"/>
<path fill="#ED2F35" opacity="1.000000" stroke="none" 
	d="
M276.620117,295.290771 
	C277.027496,305.744049 277.025024,316.338776 277.026306,327.392059 
	C276.678680,327.231720 276.020844,326.612366 276.021698,325.993927 
	C276.035431,315.806610 276.132141,305.619415 276.620117,295.290771 
z"/>
<path fill="#8ED5FF" opacity="1.000000" stroke="none" 
	d="
M172.518555,382.060333 
	C174.725250,381.706726 177.384171,381.231934 180.063919,380.971588 
	C181.824051,380.800598 183.614258,380.939301 185.942764,380.939301 
	C185.942764,377.568909 185.942764,374.804901 185.890915,371.595703 
	C186.544449,374.039795 187.478531,376.906403 187.768158,379.836761 
	C187.828278,380.445068 185.539139,381.826447 184.261765,381.924133 
	C180.520248,382.210266 176.742920,382.028595 172.518555,382.060333 
z"/>
<path fill="#000000" opacity="1.000000" stroke="none" 
	d="
M270.963318,369.099915 
	C272.130768,376.078094 273.293823,382.622070 274.538483,389.625366 
	C270.814301,390.244141 267.710571,390.759857 263.283356,391.495422 
	C265.252319,380.794250 267.040466,371.075806 268.828613,361.357361 
	C269.071960,361.415314 269.315338,361.473297 269.558685,361.531250 
	C270.025421,363.909393 270.492157,366.287537 270.963318,369.099915 
z"/>
<path fill="#000000" opacity="1.000000" stroke="none" 
	d="
M201.000458,300.212555 
	C203.320557,307.588562 200.495605,310.549408 191.408005,309.497345 
	C192.160858,305.545807 191.925079,300.987549 193.937881,297.890839 
	C195.851364,294.946960 198.709976,298.333893 201.000458,300.212555 
z"/>
<path fill="#000000" opacity="1.000000" stroke="none" 
	d="
M296.013641,298.237366 
	C301.432159,296.266022 306.392853,297.833954 310.155365,302.707184 
	C313.450562,306.975128 313.958496,314.786407 311.534119,318.948517 
	C308.047302,324.934631 302.470642,326.329254 296.080505,325.674957 
	C295.979370,316.006592 295.996490,307.121979 296.013641,298.237366 
z"/>
<path fill="#D4EFFF" opacity="1.000000" stroke="none" 
	d="
M295.625244,298.391815 
	C295.996490,307.121979 295.979370,316.006592 295.922729,325.344482 
	C295.614624,320.159851 295.269714,314.524170 295.105591,308.883240 
	C295.005493,305.441772 295.183685,301.992188 295.625244,298.391815 
z"/>
<path fill="#000000" opacity="1.000000" stroke="none" 
	d="
M264.222900,309.214966 
	C261.146454,310.258636 258.355988,311.016144 255.007797,311.925079 
	C255.007797,308.123627 254.953827,304.746887 255.022034,301.372650 
	C255.099686,297.531738 257.533142,296.084412 261.166443,297.634216 
	C265.582428,299.517883 266.463013,302.493561 264.222900,309.214966 
z"/>
<path fill="#000000" opacity="1.000000" stroke="none" 
	d="
M227.240570,303.687805 
	C229.440811,307.596405 231.430984,311.789642 233.728973,316.631470 
	C229.323578,316.631470 225.833145,316.631470 221.983139,316.631470 
	C223.707504,312.306671 225.369003,308.139557 227.240570,303.687805 
z"/>
</svg>